<svg width="192" height="32" viewBox="0 0 192 32" fill="none" xmlns="http://www.w3.org/2000/svg">
<path d="M0.09625 31L10.3763 1.2H17.4163L27.6963 31H21.7763L19.6562 24.6H8.13625L5.97625 31H0.09625ZM9.69625 19.8H18.0963L13.1363 4.96H14.6563L9.69625 19.8ZM30.5728 31V9.24H35.4928V14.08L35.0928 13.36C35.5995 11.7333 36.3861 10.6 37.4528 9.96C38.5461 9.32 39.8528 9 41.3728 9H42.6528V13.64H40.7728C39.2795 13.64 38.0795 14.1067 37.1728 15.04C36.2661 15.9467 35.8128 17.2267 35.8128 18.88V31H30.5728ZM56.0397 31.24C53.5864 31.24 51.6797 30.5733 50.3197 29.24C48.9864 27.88 48.3197 25.9733 48.3197 23.52V13.92H44.5597V9.24H44.9597C46.0264 9.24 46.853 8.96 47.4397 8.4C48.0264 7.84 48.3197 7.02667 48.3197 5.96V4.28H53.5597V9.24H58.5597V13.92H53.5597V23.24C53.5597 23.96 53.6797 24.5733 53.9197 25.08C54.1864 25.5867 54.5864 25.9733 55.1197 26.24C55.6797 26.5067 56.3864 26.64 57.2397 26.64C57.4264 26.64 57.6397 26.6267 57.8797 26.6C58.1464 26.5733 58.3997 26.5467 58.6397 26.52V31C58.2664 31.0533 57.8397 31.1067 57.3597 31.16C56.8797 31.2133 56.4397 31.24 56.0397 31.24ZM72.7678 31.48C70.5278 31.48 68.5678 30.9733 66.8878 29.96C65.2078 28.9467 63.9011 27.5733 62.9678 25.84C62.0345 24.1067 61.5678 22.1867 61.5678 20.08C61.5678 17.8933 62.0345 15.96 62.9678 14.28C63.9278 12.5733 65.2211 11.2267 66.8478 10.24C68.5011 9.25333 70.3411 8.76 72.3678 8.76C74.0745 8.76 75.5678 9.04 76.8478 9.6C78.1545 10.16 79.2611 10.9333 80.1678 11.92C81.0745 12.9067 81.7678 14.04 82.2478 15.32C82.7278 16.5733 82.9678 17.9333 82.9678 19.4C82.9678 19.7733 82.9411 20.16 82.8878 20.56C82.8611 20.96 82.7945 21.3067 82.6878 21.6H65.8878V17.6H79.7278L77.2478 19.48C77.4878 18.2533 77.4211 17.16 77.0478 16.2C76.7011 15.24 76.1145 14.48 75.2878 13.92C74.4878 13.36 73.5145 13.08 72.3678 13.08C71.2745 13.08 70.3011 13.36 69.4478 13.92C68.5945 14.4533 67.9411 15.2533 67.4878 16.32C67.0611 17.36 66.9011 18.6267 67.0078 20.12C66.9011 21.4533 67.0745 22.64 67.5278 23.68C68.0078 24.6933 68.7011 25.48 69.6078 26.04C70.5411 26.6 71.6078 26.88 72.8078 26.88C74.0078 26.88 75.0211 26.6267 75.8478 26.12C76.7011 25.6133 77.3678 24.9333 77.8478 24.08L82.0878 26.16C81.6611 27.2 80.9945 28.12 80.0878 28.92C79.1811 29.72 78.1011 30.3467 76.8478 30.8C75.6211 31.2533 74.2611 31.48 72.7678 31.48ZM89.46 31V13.92H85.62V9.24H89.46V8.52C89.46 6.86667 89.7933 5.46667 90.46 4.32C91.1533 3.14667 92.1133 2.25333 93.34 1.64C94.5667 1.02667 96.02 0.719999 97.7 0.719999C98.02 0.719999 98.3667 0.746665 98.74 0.799998C99.14 0.826666 99.4733 0.866666 99.74 0.919999V5.44C99.4733 5.38667 99.22 5.36 98.98 5.36C98.7667 5.33333 98.5667 5.32 98.38 5.32C97.2067 5.32 96.3 5.58667 95.66 6.12C95.02 6.62666 94.7 7.42666 94.7 8.52V9.24H99.54V13.92H94.7V31H89.46ZM109.478 31.48C107.958 31.48 106.638 31.2267 105.518 30.72C104.398 30.2133 103.531 29.4933 102.918 28.56C102.304 27.6 101.998 26.4933 101.998 25.24C101.998 24.04 102.264 22.9733 102.798 22.04C103.331 21.08 104.158 20.28 105.278 19.64C106.398 19 107.811 18.5467 109.518 18.28L116.638 17.12V21.12L110.518 22.16C109.478 22.3467 108.704 22.68 108.198 23.16C107.691 23.64 107.438 24.2667 107.438 25.04C107.438 25.7867 107.718 26.3867 108.278 26.84C108.864 27.2667 109.584 27.48 110.438 27.48C111.531 27.48 112.491 27.2533 113.318 26.8C114.171 26.32 114.824 25.6667 115.278 24.84C115.758 24.0133 115.998 23.1067 115.998 22.12V16.52C115.998 15.5867 115.624 14.8133 114.878 14.2C114.158 13.56 113.198 13.24 111.998 13.24C110.878 13.24 109.878 13.5467 108.998 14.16C108.144 14.7467 107.518 15.5333 107.118 16.52L102.838 14.44C103.264 13.2933 103.931 12.3067 104.838 11.48C105.771 10.6267 106.864 9.96 108.118 9.48C109.371 9 110.731 8.76 112.197 8.76C113.984 8.76 115.558 9.09333 116.918 9.76C118.278 10.4 119.331 11.3067 120.078 12.48C120.851 13.6267 121.238 14.9733 121.238 16.52V31H116.278V27.28L117.398 27.2C116.838 28.1333 116.171 28.92 115.398 29.56C114.624 30.1733 113.744 30.6533 112.758 31C111.771 31.32 110.678 31.48 109.478 31.48ZM124.121 31L131.721 20.08L124.081 9.24H130.241L136.201 18.04H133.441L139.401 9.24H145.521L137.921 20.08L145.481 31H139.361L133.481 22.24H136.161L130.281 31H124.121ZM150.865 31V25.4H156.145V31H150.865ZM170.103 31.48C168.583 31.48 167.263 31.2267 166.143 30.72C165.023 30.2133 164.156 29.4933 163.543 28.56C162.929 27.6 162.623 26.4933 162.623 25.24C162.623 24.04 162.889 22.9733 163.423 22.04C163.956 21.08 164.783 20.28 165.903 19.64C167.023 19 168.436 18.5467 170.143 18.28L177.263 17.12V21.12L171.143 22.16C170.103 22.3467 169.329 22.68 168.823 23.16C168.316 23.64 168.063 24.2667 168.063 25.04C168.063 25.7867 168.343 26.3867 168.903 26.84C169.489 27.2667 170.209 27.48 171.062 27.48C172.156 27.48 173.116 27.2533 173.943 26.8C174.796 26.32 175.449 25.6667 175.903 24.84C176.383 24.0133 176.623 23.1067 176.623 22.12V16.52C176.623 15.5867 176.249 14.8133 175.503 14.2C174.783 13.56 173.823 13.24 172.623 13.24C171.503 13.24 170.503 13.5467 169.623 14.16C168.769 14.7467 168.143 15.5333 167.743 16.52L163.463 14.44C163.889 13.2933 164.556 12.3067 165.463 11.48C166.396 10.6267 167.489 9.96 168.743 9.48C169.996 9 171.356 8.76 172.822 8.76C174.609 8.76 176.183 9.09333 177.543 9.76C178.903 10.4 179.956 11.3067 180.703 12.48C181.476 13.6267 181.863 14.9733 181.863 16.52V31H176.903V27.28L178.023 27.2C177.463 28.1333 176.796 28.92 176.023 29.56C175.249 30.1733 174.369 30.6533 173.383 31C172.396 31.32 171.303 31.48 170.103 31.48ZM186.706 31V9.24H191.946V31H186.706ZM186.706 6.8V1.2H191.946V6.8H186.706Z" fill="url(#paint0_linear_94_3)"/>
<defs>
<linearGradient id="paint0_linear_94_3" x1="-98" y1="14.5" x2="292" y2="14.5" gradientUnits="userSpaceOnUse">
<stop stop-color="#8A2387"/>
<stop offset="0.5" stop-color="#E94057"/>
<stop offset="1" stop-color="#F27121"/>
</linearGradient>
</defs>
</svg>
