<svg width="390" height="23" viewBox="0 0 390 23" fill="none" xmlns="http://www.w3.org/2000/svg">
<path d="M108.946 16V7.06H112.714C113.306 7.06 113.81 7.164 114.226 7.372C114.65 7.572 114.974 7.86 115.198 8.236C115.43 8.604 115.546 9.052 115.546 9.58C115.546 9.988 115.434 10.372 115.21 10.732C114.994 11.084 114.646 11.376 114.166 11.608V10.852C114.606 11.02 114.954 11.228 115.21 11.476C115.466 11.724 115.646 12 115.75 12.304C115.854 12.608 115.906 12.928 115.906 13.264C115.906 14.12 115.622 14.792 115.054 15.28C114.494 15.76 113.714 16 112.714 16H108.946ZM110.578 14.56H112.882C113.306 14.56 113.642 14.444 113.89 14.212C114.146 13.972 114.274 13.656 114.274 13.264C114.274 12.872 114.146 12.556 113.89 12.316C113.642 12.076 113.306 11.956 112.882 11.956H110.578V14.56ZM110.578 10.528H112.798C113.134 10.528 113.402 10.432 113.602 10.24C113.802 10.04 113.902 9.784 113.902 9.472C113.902 9.16 113.802 8.912 113.602 8.728C113.402 8.544 113.134 8.452 112.798 8.452H110.578V10.528ZM119.439 16.144C118.935 16.144 118.495 16.032 118.119 15.808C117.751 15.584 117.467 15.272 117.267 14.872C117.075 14.472 116.979 14.004 116.979 13.468V9.472H118.551V13.336C118.551 13.608 118.603 13.848 118.707 14.056C118.819 14.256 118.975 14.416 119.175 14.536C119.383 14.648 119.615 14.704 119.871 14.704C120.127 14.704 120.355 14.648 120.555 14.536C120.755 14.416 120.911 14.252 121.023 14.044C121.135 13.836 121.191 13.588 121.191 13.3V9.472H122.763V16H121.275V14.716L121.407 14.944C121.255 15.344 121.003 15.644 120.651 15.844C120.307 16.044 119.903 16.144 119.439 16.144ZM124.224 16V9.472H125.796V16H124.224ZM124.224 8.74V7.06H125.796V8.74H124.224ZM127.248 16V6.916H128.82V16H127.248ZM133.307 16.144C132.675 16.144 132.111 15.996 131.615 15.7C131.119 15.396 130.727 14.984 130.439 14.464C130.151 13.944 130.007 13.368 130.007 12.736C130.007 12.096 130.151 11.52 130.439 11.008C130.727 10.496 131.119 10.088 131.615 9.784C132.119 9.48 132.679 9.328 133.295 9.328C133.791 9.328 134.231 9.428 134.615 9.628C135.007 9.82 135.315 10.092 135.539 10.444L135.299 10.768V6.916H136.871V16H135.383V14.74L135.551 15.052C135.327 15.404 135.015 15.676 134.615 15.868C134.215 16.052 133.779 16.144 133.307 16.144ZM133.475 14.704C133.835 14.704 134.151 14.62 134.423 14.452C134.695 14.284 134.907 14.052 135.059 13.756C135.219 13.46 135.299 13.12 135.299 12.736C135.299 12.36 135.219 12.024 135.059 11.728C134.907 11.424 134.695 11.188 134.423 11.02C134.151 10.852 133.835 10.768 133.475 10.768C133.123 10.768 132.807 10.856 132.527 11.032C132.247 11.2 132.027 11.432 131.867 11.728C131.715 12.016 131.639 12.352 131.639 12.736C131.639 13.12 131.715 13.46 131.867 13.756C132.027 14.052 132.247 14.284 132.527 14.452C132.807 14.62 133.123 14.704 133.475 14.704ZM138.334 16V9.472H139.906V16H138.334ZM138.334 8.74V7.06H139.906V8.74H138.334ZM141.357 16V9.472H142.833V10.756L142.713 10.528C142.865 10.136 143.113 9.84 143.457 9.64C143.809 9.432 144.217 9.328 144.681 9.328C145.161 9.328 145.585 9.432 145.953 9.64C146.329 9.848 146.621 10.14 146.829 10.516C147.037 10.884 147.141 11.312 147.141 11.8V16H145.569V12.172C145.569 11.884 145.513 11.636 145.401 11.428C145.289 11.22 145.133 11.06 144.933 10.948C144.741 10.828 144.513 10.768 144.249 10.768C143.993 10.768 143.765 10.828 143.565 10.948C143.365 11.06 143.209 11.22 143.097 11.428C142.985 11.636 142.929 11.884 142.929 12.172V16H141.357ZM151.638 18.64C151.15 18.64 150.698 18.56 150.282 18.4C149.866 18.24 149.506 18.016 149.202 17.728C148.906 17.448 148.69 17.116 148.554 16.732L150.018 16.18C150.114 16.484 150.302 16.728 150.582 16.912C150.87 17.104 151.222 17.2 151.638 17.2C151.958 17.2 152.238 17.14 152.478 17.02C152.726 16.9 152.918 16.724 153.054 16.492C153.19 16.268 153.258 15.996 153.258 15.676V14.188L153.558 14.548C153.334 14.94 153.034 15.236 152.658 15.436C152.282 15.636 151.854 15.736 151.374 15.736C150.766 15.736 150.222 15.596 149.742 15.316C149.262 15.036 148.886 14.652 148.614 14.164C148.342 13.676 148.206 13.128 148.206 12.52C148.206 11.904 148.342 11.356 148.614 10.876C148.886 10.396 149.258 10.02 149.73 9.748C150.202 9.468 150.738 9.328 151.338 9.328C151.826 9.328 152.254 9.432 152.622 9.64C152.998 9.84 153.31 10.132 153.558 10.516L153.342 10.912V9.472H154.83V15.676C154.83 16.244 154.69 16.752 154.41 17.2C154.138 17.648 153.762 18 153.282 18.256C152.81 18.512 152.262 18.64 151.638 18.64ZM151.566 14.284C151.902 14.284 152.194 14.212 152.442 14.068C152.698 13.916 152.898 13.708 153.042 13.444C153.186 13.18 153.258 12.876 153.258 12.532C153.258 12.196 153.182 11.896 153.03 11.632C152.886 11.36 152.686 11.148 152.43 10.996C152.182 10.844 151.894 10.768 151.566 10.768C151.238 10.768 150.942 10.844 150.678 10.996C150.414 11.148 150.206 11.36 150.054 11.632C149.91 11.896 149.838 12.196 149.838 12.532C149.838 12.868 149.91 13.168 150.054 13.432C150.206 13.696 150.41 13.904 150.666 14.056C150.93 14.208 151.23 14.284 151.566 14.284ZM161.407 16.072C160.671 16.072 160.099 15.872 159.691 15.472C159.291 15.064 159.091 14.492 159.091 13.756V10.876H157.963V9.472H158.083C158.403 9.472 158.651 9.388 158.827 9.22C159.003 9.052 159.091 8.808 159.091 8.488V7.984H160.663V9.472H162.163V10.876H160.663V13.672C160.663 13.888 160.699 14.072 160.771 14.224C160.851 14.376 160.971 14.492 161.131 14.572C161.299 14.652 161.511 14.692 161.767 14.692C161.823 14.692 161.887 14.688 161.959 14.68C162.039 14.672 162.115 14.664 162.187 14.656V16C162.075 16.016 161.947 16.032 161.803 16.048C161.659 16.064 161.527 16.072 161.407 16.072ZM163.388 16V6.916H164.96V10.756L164.744 10.528C164.896 10.136 165.144 9.84 165.488 9.64C165.84 9.432 166.248 9.328 166.712 9.328C167.192 9.328 167.616 9.432 167.984 9.64C168.36 9.848 168.652 10.14 168.86 10.516C169.068 10.884 169.172 11.312 169.172 11.8V16H167.6V12.172C167.6 11.884 167.544 11.636 167.432 11.428C167.32 11.22 167.164 11.06 166.964 10.948C166.772 10.828 166.544 10.768 166.28 10.768C166.024 10.768 165.796 10.828 165.596 10.948C165.396 11.06 165.24 11.22 165.128 11.428C165.016 11.636 164.96 11.884 164.96 12.172V16H163.388ZM173.598 16.144C172.926 16.144 172.338 15.992 171.834 15.688C171.33 15.384 170.938 14.972 170.658 14.452C170.378 13.932 170.238 13.356 170.238 12.724C170.238 12.068 170.378 11.488 170.658 10.984C170.946 10.472 171.334 10.068 171.822 9.772C172.318 9.476 172.87 9.328 173.478 9.328C173.99 9.328 174.438 9.412 174.822 9.58C175.214 9.748 175.546 9.98 175.818 10.276C176.09 10.572 176.298 10.912 176.442 11.296C176.586 11.672 176.658 12.08 176.658 12.52C176.658 12.632 176.65 12.748 176.634 12.868C176.626 12.988 176.606 13.092 176.574 13.18H171.534V11.98H175.686L174.942 12.544C175.014 12.176 174.994 11.848 174.882 11.56C174.778 11.272 174.602 11.044 174.354 10.876C174.114 10.708 173.822 10.624 173.478 10.624C173.15 10.624 172.858 10.708 172.602 10.876C172.346 11.036 172.15 11.276 172.014 11.596C171.886 11.908 171.838 12.288 171.87 12.736C171.838 13.136 171.89 13.492 172.026 13.804C172.17 14.108 172.378 14.344 172.65 14.512C172.93 14.68 173.25 14.764 173.61 14.764C173.97 14.764 174.274 14.688 174.522 14.536C174.778 14.384 174.978 14.18 175.122 13.924L176.394 14.548C176.266 14.86 176.066 15.136 175.794 15.376C175.522 15.616 175.198 15.804 174.822 15.94C174.454 16.076 174.046 16.144 173.598 16.144ZM183.078 16.144C182.406 16.144 181.818 15.992 181.314 15.688C180.81 15.384 180.418 14.972 180.138 14.452C179.858 13.932 179.718 13.356 179.718 12.724C179.718 12.068 179.858 11.488 180.138 10.984C180.426 10.472 180.814 10.068 181.302 9.772C181.798 9.476 182.35 9.328 182.958 9.328C183.47 9.328 183.918 9.412 184.302 9.58C184.694 9.748 185.026 9.98 185.298 10.276C185.57 10.572 185.778 10.912 185.922 11.296C186.066 11.672 186.138 12.08 186.138 12.52C186.138 12.632 186.13 12.748 186.114 12.868C186.106 12.988 186.086 13.092 186.054 13.18H181.014V11.98H185.166L184.422 12.544C184.494 12.176 184.474 11.848 184.362 11.56C184.258 11.272 184.082 11.044 183.834 10.876C183.594 10.708 183.302 10.624 182.958 10.624C182.63 10.624 182.338 10.708 182.082 10.876C181.826 11.036 181.63 11.276 181.494 11.596C181.366 11.908 181.318 12.288 181.35 12.736C181.318 13.136 181.37 13.492 181.506 13.804C181.65 14.108 181.858 14.344 182.13 14.512C182.41 14.68 182.73 14.764 183.09 14.764C183.45 14.764 183.754 14.688 184.002 14.536C184.258 14.384 184.458 14.18 184.602 13.924L185.874 14.548C185.746 14.86 185.546 15.136 185.274 15.376C185.002 15.616 184.678 15.804 184.302 15.94C183.934 16.076 183.526 16.144 183.078 16.144ZM187.33 16V9.472H188.806V10.756L188.686 10.528C188.838 10.136 189.086 9.84 189.43 9.64C189.782 9.432 190.19 9.328 190.654 9.328C191.134 9.328 191.558 9.432 191.926 9.64C192.302 9.848 192.594 10.14 192.802 10.516C193.01 10.884 193.114 11.312 193.114 11.8V16H191.542V12.172C191.542 11.884 191.486 11.636 191.374 11.428C191.262 11.22 191.106 11.06 190.906 10.948C190.714 10.828 190.486 10.768 190.222 10.768C189.966 10.768 189.738 10.828 189.538 10.948C189.338 11.06 189.182 11.22 189.07 11.428C188.958 11.636 188.902 11.884 188.902 12.172V16H187.33ZM197.611 18.64C197.123 18.64 196.671 18.56 196.255 18.4C195.839 18.24 195.479 18.016 195.175 17.728C194.879 17.448 194.663 17.116 194.527 16.732L195.991 16.18C196.087 16.484 196.275 16.728 196.555 16.912C196.843 17.104 197.195 17.2 197.611 17.2C197.931 17.2 198.211 17.14 198.451 17.02C198.699 16.9 198.891 16.724 199.027 16.492C199.163 16.268 199.231 15.996 199.231 15.676V14.188L199.531 14.548C199.307 14.94 199.007 15.236 198.631 15.436C198.255 15.636 197.827 15.736 197.347 15.736C196.739 15.736 196.195 15.596 195.715 15.316C195.235 15.036 194.859 14.652 194.587 14.164C194.315 13.676 194.179 13.128 194.179 12.52C194.179 11.904 194.315 11.356 194.587 10.876C194.859 10.396 195.231 10.02 195.703 9.748C196.175 9.468 196.711 9.328 197.311 9.328C197.799 9.328 198.227 9.432 198.595 9.64C198.971 9.84 199.283 10.132 199.531 10.516L199.315 10.912V9.472H200.803V15.676C200.803 16.244 200.663 16.752 200.383 17.2C200.111 17.648 199.735 18 199.255 18.256C198.783 18.512 198.235 18.64 197.611 18.64ZM197.539 14.284C197.875 14.284 198.167 14.212 198.415 14.068C198.671 13.916 198.871 13.708 199.015 13.444C199.159 13.18 199.231 12.876 199.231 12.532C199.231 12.196 199.155 11.896 199.003 11.632C198.859 11.36 198.659 11.148 198.403 10.996C198.155 10.844 197.867 10.768 197.539 10.768C197.211 10.768 196.915 10.844 196.651 10.996C196.387 11.148 196.179 11.36 196.027 11.632C195.883 11.896 195.811 12.196 195.811 12.532C195.811 12.868 195.883 13.168 196.027 13.432C196.179 13.696 196.383 13.904 196.639 14.056C196.903 14.208 197.203 14.284 197.539 14.284ZM202.271 16V9.472H203.843V16H202.271ZM202.271 8.74V7.06H203.843V8.74H202.271ZM205.295 16V9.472H206.771V10.756L206.651 10.528C206.803 10.136 207.051 9.84 207.395 9.64C207.747 9.432 208.155 9.328 208.619 9.328C209.099 9.328 209.523 9.432 209.891 9.64C210.267 9.848 210.559 10.14 210.767 10.516C210.975 10.884 211.079 11.312 211.079 11.8V16H209.507V12.172C209.507 11.884 209.451 11.636 209.339 11.428C209.227 11.22 209.071 11.06 208.871 10.948C208.679 10.828 208.451 10.768 208.187 10.768C207.931 10.768 207.703 10.828 207.503 10.948C207.303 11.06 207.147 11.22 207.035 11.428C206.923 11.636 206.867 11.884 206.867 12.172V16H205.295ZM215.504 16.144C214.832 16.144 214.244 15.992 213.74 15.688C213.236 15.384 212.844 14.972 212.564 14.452C212.284 13.932 212.144 13.356 212.144 12.724C212.144 12.068 212.284 11.488 212.564 10.984C212.852 10.472 213.24 10.068 213.728 9.772C214.224 9.476 214.776 9.328 215.384 9.328C215.896 9.328 216.344 9.412 216.728 9.58C217.12 9.748 217.452 9.98 217.724 10.276C217.996 10.572 218.204 10.912 218.348 11.296C218.492 11.672 218.564 12.08 218.564 12.52C218.564 12.632 218.556 12.748 218.54 12.868C218.532 12.988 218.512 13.092 218.48 13.18H213.44V11.98H217.592L216.848 12.544C216.92 12.176 216.9 11.848 216.788 11.56C216.684 11.272 216.508 11.044 216.26 10.876C216.02 10.708 215.728 10.624 215.384 10.624C215.056 10.624 214.764 10.708 214.508 10.876C214.252 11.036 214.056 11.276 213.92 11.596C213.792 11.908 213.744 12.288 213.776 12.736C213.744 13.136 213.796 13.492 213.932 13.804C214.076 14.108 214.284 14.344 214.556 14.512C214.836 14.68 215.156 14.764 215.516 14.764C215.876 14.764 216.18 14.688 216.428 14.536C216.684 14.384 216.884 14.18 217.028 13.924L218.3 14.548C218.172 14.86 217.972 15.136 217.7 15.376C217.428 15.616 217.104 15.804 216.728 15.94C216.36 16.076 215.952 16.144 215.504 16.144ZM222.239 16.144C221.543 16.144 220.935 15.98 220.415 15.652C219.903 15.316 219.551 14.864 219.359 14.296L220.535 13.732C220.703 14.1 220.935 14.388 221.231 14.596C221.535 14.804 221.871 14.908 222.239 14.908C222.527 14.908 222.755 14.844 222.923 14.716C223.091 14.588 223.175 14.42 223.175 14.212C223.175 14.084 223.139 13.98 223.067 13.9C223.003 13.812 222.911 13.74 222.791 13.684C222.679 13.62 222.555 13.568 222.419 13.528L221.351 13.228C220.799 13.068 220.379 12.824 220.091 12.496C219.811 12.168 219.671 11.78 219.671 11.332C219.671 10.932 219.771 10.584 219.971 10.288C220.179 9.984 220.463 9.748 220.823 9.58C221.191 9.412 221.611 9.328 222.083 9.328C222.699 9.328 223.243 9.476 223.715 9.772C224.187 10.068 224.523 10.484 224.723 11.02L223.523 11.584C223.411 11.288 223.223 11.052 222.959 10.876C222.695 10.7 222.399 10.612 222.071 10.612C221.807 10.612 221.599 10.672 221.447 10.792C221.295 10.912 221.219 11.068 221.219 11.26C221.219 11.38 221.251 11.484 221.315 11.572C221.379 11.66 221.467 11.732 221.579 11.788C221.699 11.844 221.835 11.896 221.987 11.944L223.031 12.256C223.567 12.416 223.979 12.656 224.267 12.976C224.563 13.296 224.711 13.688 224.711 14.152C224.711 14.544 224.607 14.892 224.399 15.196C224.191 15.492 223.903 15.724 223.535 15.892C223.167 16.06 222.735 16.144 222.239 16.144ZM231.244 16.144C230.604 16.144 230.02 15.996 229.492 15.7C228.972 15.404 228.556 15 228.244 14.488C227.94 13.976 227.788 13.392 227.788 12.736C227.788 12.08 227.94 11.496 228.244 10.984C228.556 10.472 228.972 10.068 229.492 9.772C230.012 9.476 230.596 9.328 231.244 9.328C231.884 9.328 232.464 9.476 232.984 9.772C233.504 10.068 233.916 10.472 234.22 10.984C234.532 11.488 234.688 12.072 234.688 12.736C234.688 13.392 234.532 13.976 234.22 14.488C233.908 15 233.492 15.404 232.972 15.7C232.452 15.996 231.876 16.144 231.244 16.144ZM231.244 14.704C231.596 14.704 231.904 14.62 232.168 14.452C232.44 14.284 232.652 14.052 232.804 13.756C232.964 13.452 233.044 13.112 233.044 12.736C233.044 12.352 232.964 12.016 232.804 11.728C232.652 11.432 232.44 11.2 232.168 11.032C231.904 10.856 231.596 10.768 231.244 10.768C230.884 10.768 230.568 10.856 230.296 11.032C230.024 11.2 229.808 11.432 229.648 11.728C229.496 12.016 229.42 12.352 229.42 12.736C229.42 13.112 229.496 13.452 229.648 13.756C229.808 14.052 230.024 14.284 230.296 14.452C230.568 14.62 230.884 14.704 231.244 14.704ZM236.496 16V10.876H235.344V9.472H236.496V9.256C236.496 8.76 236.596 8.34 236.796 7.996C237.004 7.644 237.292 7.376 237.66 7.192C238.028 7.008 238.464 6.916 238.968 6.916C239.064 6.916 239.168 6.924 239.28 6.94C239.4 6.948 239.5 6.96 239.58 6.976V8.332C239.5 8.316 239.424 8.308 239.352 8.308C239.288 8.3 239.228 8.296 239.172 8.296C238.82 8.296 238.548 8.376 238.356 8.536C238.164 8.688 238.068 8.928 238.068 9.256V9.472H239.52V10.876H238.068V16H236.496ZM244.392 16L242.148 9.472H243.804L245.448 14.428L244.872 14.416L246.624 9.472H248.016L249.756 14.416L249.18 14.428L250.824 9.472H252.48L250.236 16H248.832L247.056 10.828H247.584L245.784 16H244.392ZM256.416 16.144C255.776 16.144 255.192 15.996 254.664 15.7C254.144 15.404 253.728 15 253.416 14.488C253.112 13.976 252.96 13.392 252.96 12.736C252.96 12.08 253.112 11.496 253.416 10.984C253.728 10.472 254.144 10.068 254.664 9.772C255.184 9.476 255.768 9.328 256.416 9.328C257.056 9.328 257.636 9.476 258.156 9.772C258.676 10.068 259.088 10.472 259.392 10.984C259.704 11.488 259.86 12.072 259.86 12.736C259.86 13.392 259.704 13.976 259.392 14.488C259.08 15 258.664 15.404 258.144 15.7C257.624 15.996 257.048 16.144 256.416 16.144ZM256.416 14.704C256.768 14.704 257.076 14.62 257.34 14.452C257.612 14.284 257.824 14.052 257.976 13.756C258.136 13.452 258.216 13.112 258.216 12.736C258.216 12.352 258.136 12.016 257.976 11.728C257.824 11.432 257.612 11.2 257.34 11.032C257.076 10.856 256.768 10.768 256.416 10.768C256.056 10.768 255.74 10.856 255.468 11.032C255.196 11.2 254.98 11.432 254.82 11.728C254.668 12.016 254.592 12.352 254.592 12.736C254.592 13.112 254.668 13.452 254.82 13.756C254.98 14.052 255.196 14.284 255.468 14.452C255.74 14.62 256.056 14.704 256.416 14.704ZM262.579 16L260.335 9.472H261.991L263.635 14.428L263.059 14.416L264.811 9.472H266.203L267.943 14.416L267.367 14.428L269.011 9.472H270.667L268.423 16H267.019L265.243 10.828H265.771L263.971 16H262.579ZM274.466 13.288L274.358 7.06H275.954L275.846 13.288H274.466ZM274.358 16V14.32H275.954V16H274.358ZM278.859 16V14.32H280.443V16H278.859Z" fill="#242424"/>
</svg>
