<svg width="87" height="15" viewBox="0 0 87 15" fill="none" xmlns="http://www.w3.org/2000/svg">
<path d="M0.198 14.5L4.824 1.09H7.992L12.618 14.5H9.954L9 11.62H3.816L2.844 14.5H0.198ZM4.518 9.46H8.298L6.066 2.782H6.75L4.518 9.46ZM13.9125 14.5V4.708H16.1265V6.886L15.9465 6.562C16.1745 5.83 16.5285 5.32 17.0085 5.032C17.5005 4.744 18.0885 4.6 18.7725 4.6H19.3485V6.688H18.5025C17.8305 6.688 17.2905 6.898 16.8825 7.318C16.4745 7.726 16.2705 8.302 16.2705 9.046V14.5H13.9125ZM25.3725 14.608C24.2685 14.608 23.4105 14.308 22.7985 13.708C22.1985 13.096 21.8985 12.238 21.8985 11.134V6.814H20.2065V4.708H20.3865C20.8665 4.708 21.2385 4.582 21.5025 4.33C21.7665 4.078 21.8985 3.712 21.8985 3.232V2.476H24.2565V4.708H26.5065V6.814H24.2565V11.008C24.2565 11.332 24.3105 11.608 24.4185 11.836C24.5385 12.064 24.7185 12.238 24.9585 12.358C25.2105 12.478 25.5285 12.538 25.9125 12.538C25.9965 12.538 26.0925 12.532 26.2005 12.52C26.3205 12.508 26.4345 12.496 26.5425 12.484V14.5C26.3745 14.524 26.1825 14.548 25.9665 14.572C25.7505 14.596 25.5525 14.608 25.3725 14.608ZM32.9002 14.716C31.8922 14.716 31.0102 14.488 30.2542 14.032C29.4982 13.576 28.9102 12.958 28.4902 12.178C28.0702 11.398 27.8602 10.534 27.8602 9.586C27.8602 8.602 28.0702 7.732 28.4902 6.976C28.9222 6.208 29.5042 5.602 30.2362 5.158C30.9802 4.714 31.8082 4.492 32.7202 4.492C33.4882 4.492 34.1602 4.618 34.7362 4.87C35.3242 5.122 35.8222 5.47 36.2302 5.914C36.6382 6.358 36.9502 6.868 37.1662 7.444C37.3822 8.008 37.4902 8.62 37.4902 9.28C37.4902 9.448 37.4782 9.622 37.4542 9.802C37.4422 9.982 37.4122 10.138 37.3642 10.27H29.8042V8.47H36.0322L34.9162 9.316C35.0242 8.764 34.9942 8.272 34.8262 7.84C34.6702 7.408 34.4062 7.066 34.0342 6.814C33.6742 6.562 33.2362 6.436 32.7202 6.436C32.2282 6.436 31.7902 6.562 31.4062 6.814C31.0222 7.054 30.7282 7.414 30.5242 7.894C30.3322 8.362 30.2602 8.932 30.3082 9.604C30.2602 10.204 30.3382 10.738 30.5422 11.206C30.7582 11.662 31.0702 12.016 31.4782 12.268C31.8982 12.52 32.3782 12.646 32.9182 12.646C33.4582 12.646 33.9142 12.532 34.2862 12.304C34.6702 12.076 34.9702 11.77 35.1862 11.386L37.0942 12.322C36.9022 12.79 36.6022 13.204 36.1942 13.564C35.7862 13.924 35.3002 14.206 34.7362 14.41C34.1842 14.614 33.5722 14.716 32.9002 14.716ZM40.4117 14.5V6.814H38.6837V4.708H40.4117V4.384C40.4117 3.64 40.5617 3.01 40.8617 2.494C41.1737 1.966 41.6057 1.564 42.1577 1.288C42.7097 1.012 43.3637 0.873999 44.1197 0.873999C44.2637 0.873999 44.4197 0.885999 44.5877 0.909999C44.7677 0.922 44.9177 0.94 45.0377 0.963999V2.998C44.9177 2.974 44.8037 2.962 44.6957 2.962C44.5997 2.95 44.5097 2.944 44.4257 2.944C43.8977 2.944 43.4897 3.064 43.2017 3.304C42.9137 3.532 42.7697 3.892 42.7697 4.384V4.708H44.9477V6.814H42.7697V14.5H40.4117ZM49.4196 14.716C48.7356 14.716 48.1416 14.602 47.6376 14.374C47.1336 14.146 46.7436 13.822 46.4676 13.402C46.1916 12.97 46.0536 12.472 46.0536 11.908C46.0536 11.368 46.1736 10.888 46.4136 10.468C46.6536 10.036 47.0256 9.676 47.5296 9.388C48.0336 9.1 48.6696 8.896 49.4376 8.776L52.6416 8.254V10.054L49.8876 10.522C49.4196 10.606 49.0716 10.756 48.8436 10.972C48.6156 11.188 48.5016 11.47 48.5016 11.818C48.5016 12.154 48.6276 12.424 48.8796 12.628C49.1436 12.82 49.4676 12.916 49.8516 12.916C50.3436 12.916 50.7756 12.814 51.1476 12.61C51.5316 12.394 51.8256 12.1 52.0296 11.728C52.2456 11.356 52.3536 10.948 52.3536 10.504V7.984C52.3536 7.564 52.1856 7.216 51.8496 6.94C51.5256 6.652 51.0936 6.508 50.5536 6.508C50.0496 6.508 49.5996 6.646 49.2036 6.922C48.8196 7.186 48.5376 7.54 48.3576 7.984L46.4316 7.048C46.6236 6.532 46.9236 6.088 47.3316 5.716C47.7516 5.332 48.2436 5.032 48.8076 4.816C49.3716 4.6 49.9836 4.492 50.6436 4.492C51.4476 4.492 52.1556 4.642 52.7676 4.942C53.3796 5.23 53.8536 5.638 54.1896 6.166C54.5376 6.682 54.7116 7.288 54.7116 7.984V14.5H52.4796V12.826L52.9836 12.79C52.7316 13.21 52.4316 13.564 52.0836 13.852C51.7356 14.128 51.3396 14.344 50.8956 14.5C50.4516 14.644 49.9596 14.716 49.4196 14.716ZM56.009 14.5L59.429 9.586L55.991 4.708H58.763L61.445 8.668H60.203L62.885 4.708H65.639L62.219 9.586L65.621 14.5H62.867L60.221 10.558H61.427L58.781 14.5H56.009ZM68.0441 14.5V11.98H70.4201V14.5H68.0441ZM76.7008 14.716C76.0168 14.716 75.4228 14.602 74.9188 14.374C74.4148 14.146 74.0248 13.822 73.7488 13.402C73.4728 12.97 73.3348 12.472 73.3348 11.908C73.3348 11.368 73.4548 10.888 73.6948 10.468C73.9348 10.036 74.3068 9.676 74.8108 9.388C75.3148 9.1 75.9508 8.896 76.7188 8.776L79.9228 8.254V10.054L77.1688 10.522C76.7008 10.606 76.3528 10.756 76.1248 10.972C75.8968 11.188 75.7828 11.47 75.7828 11.818C75.7828 12.154 75.9088 12.424 76.1608 12.628C76.4248 12.82 76.7488 12.916 77.1328 12.916C77.6248 12.916 78.0568 12.814 78.4288 12.61C78.8128 12.394 79.1068 12.1 79.3108 11.728C79.5268 11.356 79.6348 10.948 79.6348 10.504V7.984C79.6348 7.564 79.4668 7.216 79.1308 6.94C78.8068 6.652 78.3748 6.508 77.8348 6.508C77.3308 6.508 76.8808 6.646 76.4848 6.922C76.1008 7.186 75.8188 7.54 75.6388 7.984L73.7128 7.048C73.9048 6.532 74.2048 6.088 74.6128 5.716C75.0328 5.332 75.5248 5.032 76.0888 4.816C76.6528 4.6 77.2648 4.492 77.9248 4.492C78.7288 4.492 79.4368 4.642 80.0488 4.942C80.6608 5.23 81.1348 5.638 81.4708 6.166C81.8188 6.682 81.9928 7.288 81.9928 7.984V14.5H79.7608V12.826L80.2648 12.79C80.0128 13.21 79.7128 13.564 79.3648 13.852C79.0168 14.128 78.6208 14.344 78.1768 14.5C77.7328 14.644 77.2408 14.716 76.7008 14.716ZM84.1722 14.5V4.708H86.5302V14.5H84.1722ZM84.1722 3.61V1.09H86.5302V3.61H84.1722Z" fill="#171412"/>
</svg>
