<svg width="173" height="13" viewBox="0 0 173 13" fill="none" xmlns="http://www.w3.org/2000/svg">
<path d="M0.946031 10V1.06H4.71403C5.30603 1.06 5.81003 1.164 6.22603 1.372C6.65003 1.572 6.97403 1.86 7.19803 2.236C7.43003 2.604 7.54603 3.052 7.54603 3.58C7.54603 3.988 7.43403 4.372 7.21003 4.732C6.99403 5.084 6.64603 5.376 6.16603 5.608V4.852C6.60603 5.02 6.95403 5.228 7.21003 5.476C7.46603 5.724 7.64603 6 7.75003 6.304C7.85403 6.608 7.90603 6.928 7.90603 7.264C7.90603 8.12 7.62203 8.792 7.05403 9.28C6.49403 9.76 5.71403 10 4.71403 10H0.946031ZM2.57803 8.56H4.88203C5.30603 8.56 5.64203 8.444 5.89003 8.212C6.14603 7.972 6.27403 7.656 6.27403 7.264C6.27403 6.872 6.14603 6.556 5.89003 6.316C5.64203 6.076 5.30603 5.956 4.88203 5.956H2.57803V8.56ZM2.57803 4.528H4.79803C5.13403 4.528 5.40203 4.432 5.60203 4.24C5.80203 4.04 5.90203 3.784 5.90203 3.472C5.90203 3.16 5.80203 2.912 5.60203 2.728C5.40203 2.544 5.13403 2.452 4.79803 2.452H2.57803V4.528ZM11.4389 10.144C10.9349 10.144 10.4949 10.032 10.1189 9.808C9.75091 9.584 9.46691 9.272 9.26691 8.872C9.07491 8.472 8.97891 8.004 8.97891 7.468V3.472H10.5509V7.336C10.5509 7.608 10.6029 7.848 10.7069 8.056C10.8189 8.256 10.9749 8.416 11.1749 8.536C11.3829 8.648 11.6149 8.704 11.8709 8.704C12.1269 8.704 12.3549 8.648 12.5549 8.536C12.7549 8.416 12.9109 8.252 13.0229 8.044C13.1349 7.836 13.1909 7.588 13.1909 7.3V3.472H14.7629V10H13.2749V8.716L13.4069 8.944C13.2549 9.344 13.0029 9.644 12.6509 9.844C12.3069 10.044 11.9029 10.144 11.4389 10.144ZM16.2242 10V3.472H17.7962V10H16.2242ZM16.2242 2.74V1.06H17.7962V2.74H16.2242ZM19.2476 10V0.916H20.8196V10H19.2476ZM25.3071 10.144C24.6751 10.144 24.1111 9.996 23.6151 9.7C23.1191 9.396 22.7271 8.984 22.4391 8.464C22.1511 7.944 22.0071 7.368 22.0071 6.736C22.0071 6.096 22.1511 5.52 22.4391 5.008C22.7271 4.496 23.1191 4.088 23.6151 3.784C24.1191 3.48 24.6791 3.328 25.2951 3.328C25.7911 3.328 26.2311 3.428 26.6151 3.628C27.0071 3.82 27.3151 4.092 27.5391 4.444L27.2991 4.768V0.916H28.8711V10H27.3831V8.74L27.5511 9.052C27.3271 9.404 27.0151 9.676 26.6151 9.868C26.2151 10.052 25.7791 10.144 25.3071 10.144ZM25.4751 8.704C25.8351 8.704 26.1511 8.62 26.4231 8.452C26.6951 8.284 26.9071 8.052 27.0591 7.756C27.2191 7.46 27.2991 7.12 27.2991 6.736C27.2991 6.36 27.2191 6.024 27.0591 5.728C26.9071 5.424 26.6951 5.188 26.4231 5.02C26.1511 4.852 25.8351 4.768 25.4751 4.768C25.1231 4.768 24.8071 4.856 24.5271 5.032C24.2471 5.2 24.0271 5.432 23.8671 5.728C23.7151 6.016 23.6391 6.352 23.6391 6.736C23.6391 7.12 23.7151 7.46 23.8671 7.756C24.0271 8.052 24.2471 8.284 24.5271 8.452C24.8071 8.62 25.1231 8.704 25.4751 8.704ZM30.3336 10V3.472H31.9056V10H30.3336ZM30.3336 2.74V1.06H31.9056V2.74H30.3336ZM33.357 10V3.472H34.833V4.756L34.713 4.528C34.865 4.136 35.113 3.84 35.457 3.64C35.809 3.432 36.217 3.328 36.681 3.328C37.161 3.328 37.585 3.432 37.953 3.64C38.329 3.848 38.621 4.14 38.829 4.516C39.037 4.884 39.141 5.312 39.141 5.8V10H37.569V6.172C37.569 5.884 37.513 5.636 37.401 5.428C37.289 5.22 37.133 5.06 36.933 4.948C36.741 4.828 36.513 4.768 36.249 4.768C35.993 4.768 35.765 4.828 35.565 4.948C35.365 5.06 35.209 5.22 35.097 5.428C34.985 5.636 34.929 5.884 34.929 6.172V10H33.357ZM43.6383 12.64C43.1503 12.64 42.6983 12.56 42.2823 12.4C41.8663 12.24 41.5063 12.016 41.2023 11.728C40.9063 11.448 40.6903 11.116 40.5543 10.732L42.0183 10.18C42.1143 10.484 42.3023 10.728 42.5823 10.912C42.8703 11.104 43.2223 11.2 43.6383 11.2C43.9583 11.2 44.2383 11.14 44.4783 11.02C44.7263 10.9 44.9183 10.724 45.0543 10.492C45.1903 10.268 45.2583 9.996 45.2583 9.676V8.188L45.5583 8.548C45.3343 8.94 45.0343 9.236 44.6583 9.436C44.2823 9.636 43.8543 9.736 43.3743 9.736C42.7663 9.736 42.2223 9.596 41.7423 9.316C41.2623 9.036 40.8863 8.652 40.6143 8.164C40.3423 7.676 40.2063 7.128 40.2063 6.52C40.2063 5.904 40.3423 5.356 40.6143 4.876C40.8863 4.396 41.2583 4.02 41.7303 3.748C42.2023 3.468 42.7383 3.328 43.3383 3.328C43.8263 3.328 44.2543 3.432 44.6223 3.64C44.9983 3.84 45.3103 4.132 45.5583 4.516L45.3423 4.912V3.472H46.8303V9.676C46.8303 10.244 46.6903 10.752 46.4103 11.2C46.1383 11.648 45.7623 12 45.2823 12.256C44.8103 12.512 44.2623 12.64 43.6383 12.64ZM43.5663 8.284C43.9023 8.284 44.1943 8.212 44.4423 8.068C44.6983 7.916 44.8983 7.708 45.0423 7.444C45.1863 7.18 45.2583 6.876 45.2583 6.532C45.2583 6.196 45.1823 5.896 45.0303 5.632C44.8863 5.36 44.6863 5.148 44.4303 4.996C44.1823 4.844 43.8943 4.768 43.5663 4.768C43.2383 4.768 42.9423 4.844 42.6783 4.996C42.4143 5.148 42.2063 5.36 42.0543 5.632C41.9103 5.896 41.8383 6.196 41.8383 6.532C41.8383 6.868 41.9103 7.168 42.0543 7.432C42.2063 7.696 42.4103 7.904 42.6663 8.056C42.9303 8.208 43.2303 8.284 43.5663 8.284ZM53.4072 10.072C52.6712 10.072 52.0992 9.872 51.6912 9.472C51.2912 9.064 51.0912 8.492 51.0912 7.756V4.876H49.9632V3.472H50.0832C50.4032 3.472 50.6512 3.388 50.8272 3.22C51.0032 3.052 51.0912 2.808 51.0912 2.488V1.984H52.6632V3.472H54.1632V4.876H52.6632V7.672C52.6632 7.888 52.6992 8.072 52.7712 8.224C52.8512 8.376 52.9712 8.492 53.1312 8.572C53.2992 8.652 53.5112 8.692 53.7672 8.692C53.8232 8.692 53.8872 8.688 53.9592 8.68C54.0392 8.672 54.1152 8.664 54.1872 8.656V10C54.0752 10.016 53.9472 10.032 53.8032 10.048C53.6592 10.064 53.5272 10.072 53.4072 10.072ZM55.3883 10V0.916H56.9603V4.756L56.7443 4.528C56.8963 4.136 57.1443 3.84 57.4883 3.64C57.8403 3.432 58.2483 3.328 58.7123 3.328C59.1923 3.328 59.6163 3.432 59.9843 3.64C60.3603 3.848 60.6523 4.14 60.8603 4.516C61.0683 4.884 61.1723 5.312 61.1723 5.8V10H59.6003V6.172C59.6003 5.884 59.5443 5.636 59.4323 5.428C59.3203 5.22 59.1643 5.06 58.9643 4.948C58.7723 4.828 58.5443 4.768 58.2803 4.768C58.0243 4.768 57.7963 4.828 57.5963 4.948C57.3963 5.06 57.2403 5.22 57.1283 5.428C57.0163 5.636 56.9603 5.884 56.9603 6.172V10H55.3883ZM65.5975 10.144C64.9255 10.144 64.3375 9.992 63.8335 9.688C63.3295 9.384 62.9375 8.972 62.6575 8.452C62.3775 7.932 62.2375 7.356 62.2375 6.724C62.2375 6.068 62.3775 5.488 62.6575 4.984C62.9455 4.472 63.3335 4.068 63.8215 3.772C64.3175 3.476 64.8695 3.328 65.4775 3.328C65.9895 3.328 66.4375 3.412 66.8215 3.58C67.2135 3.748 67.5455 3.98 67.8175 4.276C68.0895 4.572 68.2975 4.912 68.4415 5.296C68.5855 5.672 68.6575 6.08 68.6575 6.52C68.6575 6.632 68.6495 6.748 68.6335 6.868C68.6255 6.988 68.6055 7.092 68.5735 7.18H63.5335V5.98H67.6855L66.9415 6.544C67.0135 6.176 66.9935 5.848 66.8815 5.56C66.7775 5.272 66.6015 5.044 66.3535 4.876C66.1135 4.708 65.8215 4.624 65.4775 4.624C65.1495 4.624 64.8575 4.708 64.6015 4.876C64.3455 5.036 64.1495 5.276 64.0135 5.596C63.8855 5.908 63.8375 6.288 63.8695 6.736C63.8375 7.136 63.8895 7.492 64.0255 7.804C64.1695 8.108 64.3775 8.344 64.6495 8.512C64.9295 8.68 65.2495 8.764 65.6095 8.764C65.9695 8.764 66.2735 8.688 66.5215 8.536C66.7775 8.384 66.9775 8.18 67.1215 7.924L68.3935 8.548C68.2655 8.86 68.0655 9.136 67.7935 9.376C67.5215 9.616 67.1975 9.804 66.8215 9.94C66.4535 10.076 66.0455 10.144 65.5975 10.144ZM75.078 10.144C74.406 10.144 73.818 9.992 73.314 9.688C72.81 9.384 72.418 8.972 72.138 8.452C71.858 7.932 71.718 7.356 71.718 6.724C71.718 6.068 71.858 5.488 72.138 4.984C72.426 4.472 72.814 4.068 73.302 3.772C73.798 3.476 74.35 3.328 74.958 3.328C75.47 3.328 75.918 3.412 76.302 3.58C76.694 3.748 77.026 3.98 77.298 4.276C77.57 4.572 77.778 4.912 77.922 5.296C78.066 5.672 78.138 6.08 78.138 6.52C78.138 6.632 78.13 6.748 78.114 6.868C78.106 6.988 78.086 7.092 78.054 7.18H73.014V5.98H77.166L76.422 6.544C76.494 6.176 76.474 5.848 76.362 5.56C76.258 5.272 76.082 5.044 75.834 4.876C75.594 4.708 75.302 4.624 74.958 4.624C74.63 4.624 74.338 4.708 74.082 4.876C73.826 5.036 73.63 5.276 73.494 5.596C73.366 5.908 73.318 6.288 73.35 6.736C73.318 7.136 73.37 7.492 73.506 7.804C73.65 8.108 73.858 8.344 74.13 8.512C74.41 8.68 74.73 8.764 75.09 8.764C75.45 8.764 75.754 8.688 76.002 8.536C76.258 8.384 76.458 8.18 76.602 7.924L77.874 8.548C77.746 8.86 77.546 9.136 77.274 9.376C77.002 9.616 76.678 9.804 76.302 9.94C75.934 10.076 75.526 10.144 75.078 10.144ZM79.3297 10V3.472H80.8057V4.756L80.6857 4.528C80.8377 4.136 81.0857 3.84 81.4297 3.64C81.7817 3.432 82.1897 3.328 82.6537 3.328C83.1337 3.328 83.5577 3.432 83.9257 3.64C84.3017 3.848 84.5937 4.14 84.8017 4.516C85.0097 4.884 85.1137 5.312 85.1137 5.8V10H83.5417V6.172C83.5417 5.884 83.4857 5.636 83.3737 5.428C83.2617 5.22 83.1057 5.06 82.9057 4.948C82.7137 4.828 82.4857 4.768 82.2217 4.768C81.9657 4.768 81.7377 4.828 81.5377 4.948C81.3377 5.06 81.1817 5.22 81.0697 5.428C80.9577 5.636 80.9017 5.884 80.9017 6.172V10H79.3297ZM89.6109 12.64C89.1229 12.64 88.6709 12.56 88.2549 12.4C87.8389 12.24 87.4789 12.016 87.1749 11.728C86.8789 11.448 86.6629 11.116 86.5269 10.732L87.9909 10.18C88.0869 10.484 88.2749 10.728 88.5549 10.912C88.8429 11.104 89.1949 11.2 89.6109 11.2C89.9309 11.2 90.2109 11.14 90.4509 11.02C90.6989 10.9 90.8909 10.724 91.0269 10.492C91.1629 10.268 91.2309 9.996 91.2309 9.676V8.188L91.5309 8.548C91.3069 8.94 91.0069 9.236 90.6309 9.436C90.2549 9.636 89.8269 9.736 89.3469 9.736C88.7389 9.736 88.1949 9.596 87.7149 9.316C87.2349 9.036 86.8589 8.652 86.5869 8.164C86.3149 7.676 86.1789 7.128 86.1789 6.52C86.1789 5.904 86.3149 5.356 86.5869 4.876C86.8589 4.396 87.2309 4.02 87.7029 3.748C88.1749 3.468 88.7109 3.328 89.3109 3.328C89.7989 3.328 90.2269 3.432 90.5949 3.64C90.9709 3.84 91.2829 4.132 91.5309 4.516L91.3149 4.912V3.472H92.8029V9.676C92.8029 10.244 92.6629 10.752 92.3829 11.2C92.1109 11.648 91.7349 12 91.2549 12.256C90.7829 12.512 90.2349 12.64 89.6109 12.64ZM89.5389 8.284C89.8749 8.284 90.1669 8.212 90.4149 8.068C90.6709 7.916 90.8709 7.708 91.0149 7.444C91.1589 7.18 91.2309 6.876 91.2309 6.532C91.2309 6.196 91.1549 5.896 91.0029 5.632C90.8589 5.36 90.6589 5.148 90.4029 4.996C90.1549 4.844 89.8669 4.768 89.5389 4.768C89.2109 4.768 88.9149 4.844 88.6509 4.996C88.3869 5.148 88.1789 5.36 88.0269 5.632C87.8829 5.896 87.8109 6.196 87.8109 6.532C87.8109 6.868 87.8829 7.168 88.0269 7.432C88.1789 7.696 88.3829 7.904 88.6389 8.056C88.9029 8.208 89.2029 8.284 89.5389 8.284ZM94.2711 10V3.472H95.8431V10H94.2711ZM94.2711 2.74V1.06H95.8431V2.74H94.2711ZM97.2945 10V3.472H98.7705V4.756L98.6505 4.528C98.8025 4.136 99.0505 3.84 99.3945 3.64C99.7465 3.432 100.155 3.328 100.619 3.328C101.099 3.328 101.523 3.432 101.891 3.64C102.267 3.848 102.559 4.14 102.767 4.516C102.975 4.884 103.079 5.312 103.079 5.8V10H101.507V6.172C101.507 5.884 101.451 5.636 101.339 5.428C101.227 5.22 101.071 5.06 100.871 4.948C100.679 4.828 100.451 4.768 100.187 4.768C99.9305 4.768 99.7025 4.828 99.5025 4.948C99.3025 5.06 99.1465 5.22 99.0345 5.428C98.9225 5.636 98.8665 5.884 98.8665 6.172V10H97.2945ZM107.504 10.144C106.832 10.144 106.244 9.992 105.74 9.688C105.236 9.384 104.844 8.972 104.564 8.452C104.284 7.932 104.144 7.356 104.144 6.724C104.144 6.068 104.284 5.488 104.564 4.984C104.852 4.472 105.24 4.068 105.728 3.772C106.224 3.476 106.776 3.328 107.384 3.328C107.896 3.328 108.344 3.412 108.728 3.58C109.12 3.748 109.452 3.98 109.724 4.276C109.996 4.572 110.204 4.912 110.348 5.296C110.492 5.672 110.564 6.08 110.564 6.52C110.564 6.632 110.556 6.748 110.54 6.868C110.532 6.988 110.512 7.092 110.48 7.18H105.44V5.98H109.592L108.848 6.544C108.92 6.176 108.9 5.848 108.788 5.56C108.684 5.272 108.508 5.044 108.26 4.876C108.02 4.708 107.728 4.624 107.384 4.624C107.056 4.624 106.764 4.708 106.508 4.876C106.252 5.036 106.056 5.276 105.92 5.596C105.792 5.908 105.744 6.288 105.776 6.736C105.744 7.136 105.796 7.492 105.932 7.804C106.076 8.108 106.284 8.344 106.556 8.512C106.836 8.68 107.156 8.764 107.516 8.764C107.876 8.764 108.18 8.688 108.428 8.536C108.684 8.384 108.884 8.18 109.028 7.924L110.3 8.548C110.172 8.86 109.972 9.136 109.7 9.376C109.428 9.616 109.104 9.804 108.728 9.94C108.36 10.076 107.952 10.144 107.504 10.144ZM114.239 10.144C113.543 10.144 112.935 9.98 112.415 9.652C111.903 9.316 111.551 8.864 111.359 8.296L112.535 7.732C112.703 8.1 112.935 8.388 113.231 8.596C113.535 8.804 113.871 8.908 114.239 8.908C114.527 8.908 114.755 8.844 114.923 8.716C115.091 8.588 115.175 8.42 115.175 8.212C115.175 8.084 115.139 7.98 115.067 7.9C115.003 7.812 114.911 7.74 114.791 7.684C114.679 7.62 114.555 7.568 114.419 7.528L113.351 7.228C112.799 7.068 112.379 6.824 112.091 6.496C111.811 6.168 111.671 5.78 111.671 5.332C111.671 4.932 111.771 4.584 111.971 4.288C112.179 3.984 112.463 3.748 112.823 3.58C113.191 3.412 113.611 3.328 114.083 3.328C114.699 3.328 115.243 3.476 115.715 3.772C116.187 4.068 116.523 4.484 116.723 5.02L115.523 5.584C115.411 5.288 115.223 5.052 114.959 4.876C114.695 4.7 114.399 4.612 114.071 4.612C113.807 4.612 113.599 4.672 113.447 4.792C113.295 4.912 113.219 5.068 113.219 5.26C113.219 5.38 113.251 5.484 113.315 5.572C113.379 5.66 113.467 5.732 113.579 5.788C113.699 5.844 113.835 5.896 113.987 5.944L115.031 6.256C115.567 6.416 115.979 6.656 116.267 6.976C116.563 7.296 116.711 7.688 116.711 8.152C116.711 8.544 116.607 8.892 116.399 9.196C116.191 9.492 115.903 9.724 115.535 9.892C115.167 10.06 114.735 10.144 114.239 10.144ZM123.244 10.144C122.604 10.144 122.02 9.996 121.492 9.7C120.972 9.404 120.556 9 120.244 8.488C119.94 7.976 119.788 7.392 119.788 6.736C119.788 6.08 119.94 5.496 120.244 4.984C120.556 4.472 120.972 4.068 121.492 3.772C122.012 3.476 122.596 3.328 123.244 3.328C123.884 3.328 124.464 3.476 124.984 3.772C125.504 4.068 125.916 4.472 126.22 4.984C126.532 5.488 126.688 6.072 126.688 6.736C126.688 7.392 126.532 7.976 126.22 8.488C125.908 9 125.492 9.404 124.972 9.7C124.452 9.996 123.876 10.144 123.244 10.144ZM123.244 8.704C123.596 8.704 123.904 8.62 124.168 8.452C124.44 8.284 124.652 8.052 124.804 7.756C124.964 7.452 125.044 7.112 125.044 6.736C125.044 6.352 124.964 6.016 124.804 5.728C124.652 5.432 124.44 5.2 124.168 5.032C123.904 4.856 123.596 4.768 123.244 4.768C122.884 4.768 122.568 4.856 122.296 5.032C122.024 5.2 121.808 5.432 121.648 5.728C121.496 6.016 121.42 6.352 121.42 6.736C121.42 7.112 121.496 7.452 121.648 7.756C121.808 8.052 122.024 8.284 122.296 8.452C122.568 8.62 122.884 8.704 123.244 8.704ZM128.496 10V4.876H127.344V3.472H128.496V3.256C128.496 2.76 128.596 2.34 128.796 1.996C129.004 1.644 129.292 1.376 129.66 1.192C130.028 1.008 130.464 0.916 130.968 0.916C131.064 0.916 131.168 0.924 131.28 0.939999C131.4 0.948 131.5 0.96 131.58 0.976V2.332C131.5 2.316 131.424 2.308 131.352 2.308C131.288 2.3 131.228 2.296 131.172 2.296C130.82 2.296 130.548 2.376 130.356 2.536C130.164 2.688 130.068 2.928 130.068 3.256V3.472H131.52V4.876H130.068V10H128.496ZM136.392 10L134.148 3.472H135.804L137.448 8.428L136.872 8.416L138.624 3.472H140.016L141.756 8.416L141.18 8.428L142.824 3.472H144.48L142.236 10H140.832L139.056 4.828H139.584L137.784 10H136.392ZM148.416 10.144C147.776 10.144 147.192 9.996 146.664 9.7C146.144 9.404 145.728 9 145.416 8.488C145.112 7.976 144.96 7.392 144.96 6.736C144.96 6.08 145.112 5.496 145.416 4.984C145.728 4.472 146.144 4.068 146.664 3.772C147.184 3.476 147.768 3.328 148.416 3.328C149.056 3.328 149.636 3.476 150.156 3.772C150.676 4.068 151.088 4.472 151.392 4.984C151.704 5.488 151.86 6.072 151.86 6.736C151.86 7.392 151.704 7.976 151.392 8.488C151.08 9 150.664 9.404 150.144 9.7C149.624 9.996 149.048 10.144 148.416 10.144ZM148.416 8.704C148.768 8.704 149.076 8.62 149.34 8.452C149.612 8.284 149.824 8.052 149.976 7.756C150.136 7.452 150.216 7.112 150.216 6.736C150.216 6.352 150.136 6.016 149.976 5.728C149.824 5.432 149.612 5.2 149.34 5.032C149.076 4.856 148.768 4.768 148.416 4.768C148.056 4.768 147.74 4.856 147.468 5.032C147.196 5.2 146.98 5.432 146.82 5.728C146.668 6.016 146.592 6.352 146.592 6.736C146.592 7.112 146.668 7.452 146.82 7.756C146.98 8.052 147.196 8.284 147.468 8.452C147.74 8.62 148.056 8.704 148.416 8.704ZM154.579 10L152.335 3.472H153.991L155.635 8.428L155.059 8.416L156.811 3.472H158.203L159.943 8.416L159.367 8.428L161.011 3.472H162.667L160.423 10H159.019L157.243 4.828H157.771L155.971 10H154.579ZM166.466 7.288L166.358 1.06H167.954L167.846 7.288H166.466ZM166.358 10V8.32H167.954V10H166.358ZM170.859 10V8.32H172.443V10H170.859Z" fill="#242424"/>
</svg>
