<svg width="64" height="64" viewBox="0 0 64 64" fill="none" xmlns="http://www.w3.org/2000/svg">
<circle cx="32" cy="32" r="32" fill="url(#paint0_linear_68_1977)" fill-opacity="0.1"/>
<g clip-path="url(#clip0_68_1977)">
<mask id="mask0_68_1977" style="mask-type:luminance" maskUnits="userSpaceOnUse" x="16" y="20" width="32" height="32">
<path d="M16 20H48V52H16V20Z" fill="white"/>
</mask>
<g mask="url(#mask0_68_1977)">
<path d="M45.6947 30.2363L37 35.7693V31.5018C37 30.3196 35.6918 29.6019 34.6947 30.2363L26 35.7693V23.5C26 22.6716 25.3284 22 24.5 22H17.5C16.6716 22 16 22.6716 16 23.5V48.5C16 49.3284 16.6716 50 17.5 50H46.5C47.3284 50 48 49.3284 48 48.5V31.5018C48 30.3195 46.6918 29.6019 45.6947 30.2363Z" fill="#242424"/>
</g>
</g>
<defs>
<linearGradient id="paint0_linear_68_1977" x1="0" y1="32" x2="64" y2="32" gradientUnits="userSpaceOnUse">
<stop stop-color="#8A2387"/>
<stop offset="0.5" stop-color="#E94057"/>
<stop offset="1" stop-color="#F27121"/>
</linearGradient>
<clipPath id="clip0_68_1977">
<rect width="32" height="32" fill="white" transform="translate(16 20)"/>
</clipPath>
</defs>
</svg>
