<svg width="64" height="64" viewBox="0 0 64 64" fill="none" xmlns="http://www.w3.org/2000/svg">
<circle cx="32" cy="32" r="32" fill="url(#paint0_linear_68_1988)" fill-opacity="0.1"/>
<g clip-path="url(#clip0_68_1988)">
<mask id="mask0_68_1988" style="mask-type:luminance" maskUnits="userSpaceOnUse" x="16" y="19" width="32" height="26">
<path d="M16 19H48V44.6H16V19Z" fill="white"/>
</mask>
<g mask="url(#mask0_68_1988)">
<path d="M47.2 35.6401H46.4V31.3161C46.4 30.8081 46.145 30.3201 45.695 29.9601L40.7 25.9641C40.25 25.6041 39.64 25.4001 39.005 25.4001H36.8V23.4801C36.8 22.4201 35.725 21.5601 34.4 21.5601H18.4C17.075 21.5601 16 22.4201 16 23.4801V36.2801C16 37.3401 17.075 38.2001 18.4 38.2001H19.2C19.2 40.3201 21.35 42.0401 24 42.0401C26.65 42.0401 28.8 40.3201 28.8 38.2001H35.2C35.2 40.3201 37.35 42.0401 40 42.0401C42.65 42.0401 44.8 40.3201 44.8 38.2001H47.2C47.64 38.2001 48 37.9121 48 37.5601V36.2801C48 35.9281 47.64 35.6401 47.2 35.6401ZM24 40.1201C22.675 40.1201 21.6 39.2601 21.6 38.2001C21.6 37.1401 22.675 36.2801 24 36.2801C25.325 36.2801 26.4 37.1401 26.4 38.2001C26.4 39.2601 25.325 40.1201 24 40.1201ZM40 40.1201C38.675 40.1201 37.6 39.2601 37.6 38.2001C37.6 37.1401 38.675 36.2801 40 36.2801C41.325 36.2801 42.4 37.1401 42.4 38.2001C42.4 39.2601 41.325 40.1201 40 40.1201ZM44 31.8001H36.8V27.3201H39.005L44 31.3161V31.8001Z" fill="#242424"/>
</g>
</g>
<defs>
<linearGradient id="paint0_linear_68_1988" x1="0" y1="32" x2="64" y2="32" gradientUnits="userSpaceOnUse">
<stop stop-color="#8A2387"/>
<stop offset="0.5" stop-color="#E94057"/>
<stop offset="1" stop-color="#F27121"/>
</linearGradient>
<clipPath id="clip0_68_1988">
<rect width="32" height="25.6" fill="white" transform="translate(16 19)"/>
</clipPath>
</defs>
</svg>
