<svg width="40" height="12" viewBox="0 0 40 12" fill="none" xmlns="http://www.w3.org/2000/svg">
<path d="M2.184 1.2H4.858C5.87533 1.2 6.65933 1.37267 7.21 1.718C7.76067 2.06333 8.036 2.55333 8.036 3.188C8.036 3.776 7.87733 4.28467 7.56 4.714C7.252 5.14333 6.79 5.47933 6.174 5.722L6.16 5.764C7.14 6.08133 7.63 6.70667 7.63 7.64C7.63 8.71333 7.31267 9.544 6.678 10.132C6.05267 10.7107 5.15667 11 3.99 11H0.462L2.184 1.2ZM4.522 5.26C5.10067 5.26 5.56733 5.092 5.922 4.756C6.286 4.42 6.468 3.98133 6.468 3.44C6.468 2.74933 5.89867 2.404 4.76 2.404H3.5L2.996 5.26H4.522ZM4.004 9.796C4.648 9.796 5.15667 9.60933 5.53 9.236C5.91267 8.86267 6.104 8.354 6.104 7.71C6.104 7.262 5.936 6.93067 5.6 6.716C5.27333 6.50133 4.76 6.394 4.06 6.394H2.8L2.198 9.796H4.004ZM12.6522 3.86C13.4922 3.86 14.1408 4.10267 14.5982 4.588C15.0648 5.07333 15.2982 5.74067 15.2982 6.59C15.2982 6.87933 15.2702 7.192 15.2142 7.528L15.1162 8.032H10.1182V8.242C10.1182 8.802 10.2582 9.23133 10.5382 9.53C10.8182 9.81933 11.2288 9.964 11.7702 9.964C12.5822 9.964 13.3008 9.642 13.9262 8.998L14.5702 9.74C14.2155 10.188 13.7768 10.5333 13.2542 10.776C12.7408 11.0187 12.1902 11.14 11.6022 11.14C10.7155 11.14 10.0108 10.8927 9.48817 10.398C8.97484 9.894 8.71817 9.208 8.71817 8.34C8.71817 7.46267 8.88151 6.688 9.20817 6.016C9.54417 5.33467 10.0062 4.80733 10.5942 4.434C11.1915 4.05133 11.8775 3.86 12.6522 3.86ZM14.0102 6.94C14.0288 6.75333 14.0382 6.62267 14.0382 6.548C14.0382 6.05333 13.9028 5.67067 13.6322 5.4C13.3708 5.12933 12.9928 4.994 12.4982 4.994C11.9848 4.994 11.5275 5.18067 11.1262 5.554C10.7248 5.92733 10.4402 6.422 10.2722 7.038H13.9962L14.0102 6.94ZM17.4173 4.98H16.2693L16.4373 4H17.5993L17.7393 3.132C17.8606 2.45067 18.136 1.91867 18.5653 1.536C18.9946 1.15333 19.5593 0.962 20.2593 0.962C20.5766 0.962 20.88 1.01333 21.1693 1.116C21.4586 1.20933 21.6686 1.33533 21.7993 1.494L21.1553 2.334C21.062 2.24067 20.9406 2.166 20.7913 2.11C20.6513 2.054 20.502 2.026 20.3433 2.026C20.0353 2.026 19.7693 2.13333 19.5453 2.348C19.3306 2.55333 19.1906 2.838 19.1253 3.202L18.9853 4H20.9733L20.8053 4.98H18.8033L17.7533 11H16.3673L17.4173 4.98ZM23.3766 11.14C22.4619 11.14 21.7339 10.8833 21.1926 10.37C20.6513 9.84733 20.3806 9.14733 20.3806 8.27C20.3806 7.41133 20.5486 6.646 20.8846 5.974C21.2299 5.302 21.7106 4.784 22.3266 4.42C22.9426 4.04667 23.6519 3.86 24.4546 3.86C25.3693 3.86 26.1019 4.12133 26.6526 4.644C27.2033 5.15733 27.4786 5.85267 27.4786 6.73C27.4786 7.58867 27.3059 8.354 26.9606 9.026C26.6153 9.68867 26.1299 10.2067 25.5046 10.58C24.8886 10.9533 24.1793 11.14 23.3766 11.14ZM23.4606 10.09C23.9553 10.09 24.3986 9.94533 24.7906 9.656C25.1919 9.36667 25.5046 8.97467 25.7286 8.48C25.9526 7.976 26.0646 7.41133 26.0646 6.786C26.0646 6.198 25.9153 5.74067 25.6166 5.414C25.3179 5.078 24.8979 4.91 24.3566 4.91C23.8713 4.91 23.4326 5.05467 23.0406 5.344C22.6486 5.63333 22.3406 6.03 22.1166 6.534C21.8926 7.038 21.7806 7.60267 21.7806 8.228C21.7806 8.816 21.9299 9.27333 22.2286 9.6C22.5273 9.92667 22.9379 10.09 23.4606 10.09ZM29.081 5.708C29.221 4.896 29.305 4.32667 29.333 4H30.635C30.6256 4.34533 30.5743 4.756 30.481 5.232L30.453 5.372H30.495C30.7563 4.87733 31.1063 4.504 31.545 4.252C31.993 3.99067 32.5063 3.86 33.085 3.86C33.2343 3.86 33.365 3.874 33.477 3.902L33.281 5.022C33.2156 5.00333 33.0756 4.994 32.861 4.994C32.4503 4.994 32.049 5.11533 31.657 5.358C31.265 5.59133 30.929 5.91333 30.649 6.324C30.3783 6.72533 30.201 7.16867 30.117 7.654L29.529 11H28.143L29.081 5.708ZM37.3299 3.86C38.1699 3.86 38.8186 4.10267 39.2759 4.588C39.7426 5.07333 39.9759 5.74067 39.9759 6.59C39.9759 6.87933 39.9479 7.192 39.8919 7.528L39.7939 8.032H34.7959V8.242C34.7959 8.802 34.9359 9.23133 35.2159 9.53C35.4959 9.81933 35.9066 9.964 36.4479 9.964C37.2599 9.964 37.9786 9.642 38.6039 8.998L39.2479 9.74C38.8932 10.188 38.4546 10.5333 37.9319 10.776C37.4186 11.0187 36.8679 11.14 36.2799 11.14C35.3932 11.14 34.6886 10.8927 34.1659 10.398C33.6526 9.894 33.3959 9.208 33.3959 8.34C33.3959 7.46267 33.5592 6.688 33.8859 6.016C34.2219 5.33467 34.6839 4.80733 35.2719 4.434C35.8692 4.05133 36.5552 3.86 37.3299 3.86ZM38.6879 6.94C38.7066 6.75333 38.7159 6.62267 38.7159 6.548C38.7159 6.05333 38.5806 5.67067 38.3099 5.4C38.0486 5.12933 37.6706 4.994 37.1759 4.994C36.6626 4.994 36.2052 5.18067 35.8039 5.554C35.4026 5.92733 35.1179 6.422 34.9499 7.038H38.6739L38.6879 6.94Z" fill="#242424"/>
</svg>
