<svg width="33" height="12" viewBox="0 0 33 12" fill="none" xmlns="http://www.w3.org/2000/svg">
<path d="M6.922 9.054H3.268L2.33 11H0.608L5.69 1.2H7.076L8.714 11H7.188L6.922 9.054ZM6.74 7.808L6.096 3.16L3.856 7.808H6.74ZM11.2806 4.98H10.1326L10.3006 4H11.4626L11.6026 3.132C11.7239 2.45067 11.9993 1.91867 12.4286 1.536C12.8579 1.15333 13.4226 0.962 14.1226 0.962C14.4399 0.962 14.7433 1.01333 15.0326 1.116C15.3219 1.20933 15.5319 1.33533 15.6626 1.494L15.0186 2.334C14.9253 2.24067 14.8039 2.166 14.6546 2.11C14.5146 2.054 14.3653 2.026 14.2066 2.026C13.8986 2.026 13.6326 2.13333 13.4086 2.348C13.1939 2.55333 13.0539 2.838 12.9886 3.202L12.8486 4H14.8366L14.6686 4.98H12.6666L11.6166 11H10.2306L11.2806 4.98ZM17.3524 11.14C16.7831 11.14 16.3351 10.9953 16.0084 10.706C15.6818 10.4167 15.5184 10.006 15.5184 9.474C15.5184 9.306 15.5324 9.13333 15.5604 8.956L16.2464 5.064H14.9864L15.1824 4H16.4424L16.7644 2.152L18.1644 1.76H18.2204L17.8284 4H19.8304L19.6484 5.064H17.6464L16.9884 8.732C16.9604 8.88133 16.9464 9.026 16.9464 9.166C16.9464 9.76333 17.2544 10.062 17.8704 10.062C18.2344 10.062 18.5751 10.006 18.8924 9.894L18.7944 10.888C18.4211 11.056 17.9404 11.14 17.3524 11.14ZM24.1932 3.86C25.0332 3.86 25.6819 4.10267 26.1392 4.588C26.6059 5.07333 26.8392 5.74067 26.8392 6.59C26.8392 6.87933 26.8112 7.192 26.7552 7.528L26.6572 8.032H21.6592V8.242C21.6592 8.802 21.7992 9.23133 22.0792 9.53C22.3592 9.81933 22.7699 9.964 23.3112 9.964C24.1232 9.964 24.8419 9.642 25.4672 8.998L26.1112 9.74C25.7565 10.188 25.3179 10.5333 24.7952 10.776C24.2819 11.0187 23.7312 11.14 23.1432 11.14C22.2565 11.14 21.5519 10.8927 21.0292 10.398C20.5159 9.894 20.2592 9.208 20.2592 8.34C20.2592 7.46267 20.4225 6.688 20.7492 6.016C21.0852 5.33467 21.5472 4.80733 22.1352 4.434C22.7325 4.05133 23.4185 3.86 24.1932 3.86ZM25.5512 6.94C25.5699 6.75333 25.5792 6.62267 25.5792 6.548C25.5792 6.05333 25.4439 5.67067 25.1732 5.4C24.9119 5.12933 24.5339 4.994 24.0392 4.994C23.5259 4.994 23.0685 5.18067 22.6672 5.554C22.2659 5.92733 21.9812 6.422 21.8132 7.038H25.5372L25.5512 6.94ZM28.4403 5.708C28.5803 4.896 28.6643 4.32667 28.6923 4H29.9943C29.985 4.34533 29.9337 4.756 29.8403 5.232L29.8123 5.372H29.8543C30.1157 4.87733 30.4657 4.504 30.9043 4.252C31.3523 3.99067 31.8657 3.86 32.4443 3.86C32.5937 3.86 32.7243 3.874 32.8363 3.902L32.6403 5.022C32.575 5.00333 32.435 4.994 32.2203 4.994C31.8097 4.994 31.4083 5.11533 31.0163 5.358C30.6243 5.59133 30.2883 5.91333 30.0083 6.324C29.7377 6.72533 29.5603 7.16867 29.4763 7.654L28.8883 11H27.5023L28.4403 5.708Z" fill="#242424"/>
</svg>
